<?xml version="1.0" encoding="UTF-8" standalone="no"?>
<!-- Uploaded to: SVG Repo, www.svgrepo.com, Generator: SVG Repo Mixer Tools -->

<svg
   width="22"
   height="22"
   viewBox="0 0 22 22"
   fill="#92d798"
   stroke="#000000"
   stroke-width="1"
   stroke-linecap="round"
   stroke-linejoin="round"
   version="1.1"
   id="svg1"
   sodipodi:docname="logo.svg"
   inkscape:version="1.4.3 (0d15f75, 2025-12-25)"
   xmlns:inkscape="http://www.inkscape.org/namespaces/inkscape"
   xmlns:sodipodi="http://sodipodi.sourceforge.net/DTD/sodipodi-0.dtd"
   xmlns="http://www.w3.org/2000/svg"
   xmlns:svg="http://www.w3.org/2000/svg">
  <defs
     id="defs1" />
  <sodipodi:namedview
     id="namedview1"
     pagecolor="#ffffff"
     bordercolor="#000000"
     borderopacity="0.25"
     inkscape:showpageshadow="2"
     inkscape:pageopacity="0.0"
     inkscape:pagecheckerboard="0"
     inkscape:deskcolor="#d1d1d1"
     inkscape:zoom="5.12"
     inkscape:cx="0"
     inkscape:cy="20.800781"
     inkscape:current-layer="svg1" />
  <path
     d="M 19.38,2.4599909 15,0.99999085 a 4.0000001,4.0000001 0 0 1 -8.0000002,0 L 2.6199999,2.4599909 a 2,2 0 0 0 -1.34,2.23 l 0.58,3.47 a 1,1 0 0 0 0.9899999,0.84 h 2.15 V 18.99999 c 0,1.1 0.9,2 2,2 H 15 a 2,2 0 0 0 2,-2 V 8.9999909 h 2.15 a 1,1 0 0 0 0.99,-0.84 l 0.58,-3.47 a 2,2 0 0 0 -1.34,-2.23 z"
     id="path1" />
</svg>
